<?xml version="1.0" standalone="no"?>
<!DOCTYPE svg PUBLIC "-//W3C//DTD SVG 20010904//EN"
 "http://www.w3.org/TR/2001/REC-SVG-20010904/DTD/svg10.dtd">
<svg version="1.0" xmlns="http://www.w3.org/2000/svg"
 width="500.000000pt" height="500.000000pt" viewBox="0 0 500.000000 500.000000"
 preserveAspectRatio="xMidYMid meet">

<g transform="translate(0.000000,500.000000) scale(0.100000,-0.100000)"
fill="#000000" stroke="none">
<path d="M403 4776 c-139 -34 -275 -139 -340 -262 -67 -127 -64 0 -61 -2041
l3 -1848 23 -60 c61 -162 188 -283 347 -332 57 -17 150 -18 2120 -18 2215 0
2095 -3 2213 52 77 36 199 158 235 235 60 127 57 19 57 1993 0 1993 3 1885
-62 2015 -65 129 -210 239 -356 269 -82 17 -4109 14 -4179 -3z m4177 -213 c69
-22 150 -96 181 -165 22 -49 24 -68 27 -245 l4 -193 -2291 0 -2291 0 0 178 c0
231 8 262 94 348 46 46 75 66 112 77 43 14 298 16 2080 16 1884 1 2036 0 2084
-16z m208 -2360 l-3 -1548 -28 -57 c-32 -65 -89 -121 -156 -152 l-46 -21
-2050 0 c-1992 0 -2051 1 -2099 19 -63 24 -130 86 -164 151 l-27 50 -3 1553
-2 1552 2290 0 2290 0 -2 -1547z"/>
<path d="M890 2902 c-22 -12 -40 -32 -48 -54 -13 -32 -5 -60 152 -583 117
-389 171 -554 186 -569 32 -32 114 -30 144 5 15 17 71 189 180 555 87 291 160
537 162 546 8 29 -23 86 -55 103 -42 21 -94 11 -124 -24 -15 -18 -57 -144
-127 -379 -57 -194 -107 -352 -110 -352 -3 0 -52 159 -110 353 -112 375 -124
401 -185 412 -19 4 -42 -1 -65 -13z"/>
<path d="M2142 2905 c-62 -27 -62 -26 -62 -610 0 -564 1 -573 51 -609 46 -32
124 -11 147 39 8 17 12 84 12 190 l0 165 115 0 c62 0 138 5 167 11 329 69 454
454 226 695 -61 65 -139 108 -223 123 -89 17 -392 14 -433 -4z m429 -210 c52
-19 84 -47 110 -97 57 -111 17 -232 -95 -284 -45 -21 -66 -24 -173 -24 l-123
0 0 210 0 210 119 0 c81 0 132 -5 162 -15z"/>
<path d="M3392 2905 c-63 -28 -63 -24 -60 -631 l3 -546 33 -29 c34 -31 73 -37
115 -18 51 23 52 29 57 401 l5 348 222 -368 c161 -266 230 -372 248 -380 60
-27 116 -6 141 54 19 45 20 1059 1 1114 -8 25 -23 40 -49 53 -46 23 -86 16
-119 -19 l-24 -26 -5 -351 -5 -352 -217 360 c-119 198 -225 368 -235 378 -27
24 -73 29 -111 12z"/>
<path d="M1930 1045 c0 -128 2 -155 14 -155 8 0 18 5 21 10 4 7 13 6 26 -1 11
-5 34 -9 51 -7 45 4 72 45 72 108 0 63 -27 104 -72 108 -17 2 -40 -2 -52 -8
-19 -10 -20 -8 -20 45 0 48 -2 55 -20 55 -19 0 -20 -7 -20 -155z m134 13 c9
-12 16 -38 16 -58 0 -49 -24 -80 -61 -80 -22 0 -32 6 -39 26 -24 63 -1 134 45
134 13 0 31 -10 39 -22z"/>
<path d="M2584 1136 c-3 -14 -12 -27 -20 -30 -19 -7 -18 -26 1 -26 12 0 15
-16 15 -83 0 -51 5 -88 12 -95 18 -18 78 -16 78 3 0 9 -9 15 -24 15 -30 0 -36
16 -36 96 l0 64 30 0 c20 0 30 5 30 15 0 10 -10 15 -30 15 -25 0 -30 4 -30 25
0 32 -18 33 -26 1z"/>
<path d="M1230 1103 c0 -5 15 -54 33 -108 29 -87 37 -100 58 -103 22 -2 27 5
58 95 19 54 36 104 38 111 3 7 -3 12 -14 12 -16 0 -25 -18 -50 -96 l-30 -96
-29 94 c-21 65 -35 94 -47 96 -9 2 -17 0 -17 -5z"/>
<path d="M1454 1097 c-2 -7 -3 -78 -2 -157 3 -129 5 -145 21 -148 15 -3 17 5
17 58 0 58 1 60 20 50 34 -18 81 -8 103 22 28 38 28 118 0 156 -24 32 -81 42
-106 18 -13 -14 -16 -14 -21 -1 -7 18 -25 19 -32 2z m130 -39 c9 -12 16 -38
16 -58 0 -49 -24 -80 -61 -80 -22 0 -32 6 -39 26 -24 63 -1 134 45 134 13 0
31 -10 39 -22z"/>
<path d="M1697 1103 c-4 -3 -7 -53 -7 -110 0 -96 1 -103 20 -103 18 0 20 7 20
73 0 81 16 117 54 117 38 0 46 -19 46 -107 0 -76 2 -83 20 -83 18 0 20 7 20
81 0 77 -10 115 -34 131 -20 13 -73 8 -87 -8 -11 -14 -13 -14 -21 0 -10 17
-20 20 -31 9z"/>
<path d="M2194 1086 c-26 -22 -29 -30 -29 -86 0 -55 3 -64 28 -86 39 -33 137
-33 137 1 0 8 -14 11 -48 7 -53 -5 -82 13 -82 48 0 17 9 19 68 22 l67 3 -3 30
c-8 77 -82 110 -138 61z m94 -30 c6 -13 8 -27 5 -30 -11 -11 -93 -6 -93 5 0
49 68 69 88 25z"/>
<path d="M2395 1094 c-10 -10 -15 -29 -13 -47 2 -25 11 -35 51 -55 38 -19 48
-28 45 -45 -3 -20 -9 -22 -56 -22 -42 1 -52 -2 -50 -15 5 -23 104 -27 129 -4
39 35 22 77 -43 110 -64 33 -63 59 2 59 46 0 69 13 47 27 -22 14 -95 9 -112
-8z"/>
<path d="M2685 1093 c86 -218 89 -249 27 -268 -35 -10 -38 -28 -6 -33 43 -6
69 32 118 173 27 75 46 139 42 142 -16 16 -35 -13 -57 -86 -13 -44 -26 -81
-29 -81 -3 0 -18 38 -34 85 -22 70 -31 85 -48 85 -15 0 -18 -4 -13 -17z"/>
<path d="M3036 1079 c-46 -54 -28 -171 28 -185 40 -10 91 -1 94 17 3 14 -4 16
-40 12 -49 -6 -65 6 -68 47 -7 83 13 115 66 107 22 -4 34 -1 38 8 7 20 -3 25
-50 25 -35 0 -47 -5 -68 -31z"/>
<path d="M3226 1079 c-58 -69 -19 -189 63 -189 47 0 77 21 91 66 26 79 -17
154 -89 154 -32 0 -44 -6 -65 -31z m108 -21 c36 -51 9 -138 -43 -138 -15 0
-32 5 -39 12 -16 16 -16 120 0 136 20 20 65 14 82 -10z"/>
<path d="M3447 1103 c-4 -3 -7 -53 -7 -110 0 -96 1 -103 20 -103 18 0 20 7 20
73 0 83 16 117 56 117 32 0 44 -32 44 -121 0 -55 3 -69 15 -69 12 0 15 15 15
73 0 83 16 117 56 117 32 0 44 -32 44 -121 0 -55 3 -69 15 -69 12 0 15 17 15
93 0 78 -3 97 -18 110 -23 21 -71 22 -99 2 -18 -13 -22 -13 -33 0 -16 19 -74
19 -93 0 -13 -13 -16 -13 -21 0 -6 16 -18 19 -29 8z"/>
<path d="M2917 933 c-12 -12 -7 -41 7 -46 19 -8 38 16 30 37 -6 16 -25 21 -37
9z"/>
</g>
</svg>
